<svg width="66" height="67" viewBox="0 0 66 67" fill="none" xmlns="http://www.w3.org/2000/svg">
<g clip-path="url(#clip0_351_324)">
<path d="M33.095 0.812325C24.4631 0.812325 16.1771 4.24423 10.0783 10.3471C3.97329 16.4524 0.542763 24.7323 0.541016 33.3663C0.541016 41.9967 3.97445 50.2827 10.0783 56.3856C16.1771 62.4884 24.4631 65.9203 33.095 65.9203C41.7269 65.9203 50.0129 62.4884 56.1117 56.3856C62.2156 50.2827 65.649 41.9967 65.649 33.3663C65.649 24.736 62.2156 16.45 56.1117 10.3471C50.0129 4.24423 41.7269 0.812325 33.095 0.812325Z" fill="url(#paint0_linear_351_324)"/>
<path d="M15.2776 33.0224C24.7691 28.888 31.0968 26.1623 34.2606 24.8452C43.3045 21.0847 45.1815 20.4316 46.4073 20.4095C46.6769 20.4052 47.2771 20.4718 47.6688 20.7884C47.9944 21.0555 48.0859 21.4166 48.1317 21.6702C48.1724 21.9235 48.2283 22.5008 48.1826 22.9515C47.6942 28.0991 45.5731 40.5907 44.4948 46.3563C44.0421 48.7958 43.1418 49.6137 42.272 49.6936C40.3798 49.8676 38.9454 48.4443 37.1142 47.2444C34.2505 45.3659 32.6329 44.1971 29.8506 42.3644C26.6359 40.2463 28.7214 39.082 30.5525 37.1796C31.0307 36.6817 39.3624 29.1052 39.5201 28.418C39.5405 28.3321 39.5608 28.0116 39.3675 27.8427C39.1793 27.6734 38.8996 27.7313 38.6961 27.7771C38.4062 27.8422 33.8334 30.8677 24.9624 36.8531C23.6653 37.7453 22.4903 38.1802 21.4323 38.1573C20.2726 38.1323 18.0345 37.5001 16.3712 36.9599C14.3366 36.2971 12.7139 35.9467 12.8564 34.821C12.9276 34.235 13.7363 33.6353 15.2776 33.0224Z" fill="white"/>
</g>
<defs>
<linearGradient id="paint0_linear_351_324" x1="3255.94" y1="0.812325" x2="3255.94" y2="6511.61" gradientUnits="userSpaceOnUse">
<stop stop-color="#2AABEE"/>
<stop offset="1" stop-color="#229ED9"/>
</linearGradient>
<clipPath id="clip0_351_324">
<rect width="64.9532" height="65.2636" fill="white" transform="translate(0.541016 0.81234)"/>
</clipPath>
</defs>
</svg>
