<svg width="66" height="67" viewBox="0 0 66 67" fill="none" xmlns="http://www.w3.org/2000/svg">
<g clip-path="url(#clip0_351_321)">
<path d="M64.4977 33.3664C64.4977 15.3874 49.9226 0.812355 31.9437 0.812355C13.9647 0.812355 -0.610352 15.3874 -0.610352 33.3664C-0.610352 49.6149 11.2942 63.0828 26.8571 65.5249V42.7765H18.5914V33.3664H26.8571V26.1943C26.8571 18.0355 31.7173 13.5288 39.1534 13.5288C42.715 13.5288 46.4404 14.1646 46.4404 14.1646V22.1759H42.3355C38.2914 22.1759 37.0302 24.6854 37.0302 27.2599V33.3664H46.0589L44.6156 42.7765H37.0302V65.5249C52.5931 63.0828 64.4977 49.6151 64.4977 33.3664Z" fill="#1877F2"/>
<path d="M44.6169 42.7765L46.0602 33.3663H37.0316V27.2599C37.0316 24.6851 38.2928 22.1759 42.3369 22.1759H46.4417V14.1645C46.4417 14.1645 42.7163 13.5287 39.1544 13.5287C31.7187 13.5287 26.8584 18.0354 26.8584 26.1943V33.3663H18.5928V42.7765H26.8584V65.5248C28.5411 65.7885 30.2418 65.9207 31.945 65.9203C33.6482 65.9207 35.3489 65.7885 37.0316 65.5248V42.7765H44.6169Z" fill="white"/>
</g>
<defs>
<clipPath id="clip0_351_321">
<rect width="64.9531" height="65.2637" fill="white" transform="translate(0.0957031 0.81234)"/>
</clipPath>
</defs>
</svg>
