<svg width="66" height="67" viewBox="0 0 66 67" fill="none" xmlns="http://www.w3.org/2000/svg">
<g clip-path="url(#clip0_351_316)">
<path d="M50.3112 0.81237H15.7226C7.29489 0.81237 0.462891 7.64437 0.462891 16.0721V50.6607C0.462891 59.0884 7.29489 65.9204 15.7226 65.9204H50.3112C58.7389 65.9204 65.5709 59.0884 65.5709 50.6607V16.0721C65.5709 7.64437 58.7389 0.81237 50.3112 0.81237Z" fill="url(#paint0_radial_351_316)"/>
<path d="M50.3112 0.81237H15.7226C7.29489 0.81237 0.462891 7.64437 0.462891 16.0721V50.6607C0.462891 59.0884 7.29489 65.9204 15.7226 65.9204H50.3112C58.7389 65.9204 65.5709 59.0884 65.5709 50.6607V16.0721C65.5709 7.64437 58.7389 0.81237 50.3112 0.81237Z" fill="url(#paint1_radial_351_316)"/>
<path d="M33.0191 7.93341C26.112 7.93341 25.245 7.96368 22.5324 8.08703C19.8248 8.21114 17.9766 8.63968 16.3596 9.26864C14.6866 9.91819 13.2677 10.7872 11.8542 12.2013C10.4393 13.6151 9.57029 15.034 8.9187 16.7062C8.28797 18.3237 7.85891 20.1727 7.73709 22.879C7.61578 25.5919 7.58398 26.4592 7.58398 33.3665C7.58398 40.2738 7.6145 41.138 7.7376 43.8507C7.86222 46.5582 8.29076 48.4064 8.91921 50.0235C9.56927 51.6964 10.4383 53.1153 11.8524 54.5289C13.2657 55.9437 14.6846 56.8148 16.3563 57.4643C17.9746 58.0933 19.823 58.5218 22.5301 58.646C25.243 58.7693 26.1093 58.7996 33.016 58.7996C39.9238 58.7996 40.7881 58.7693 43.5007 58.646C46.2083 58.5218 48.0585 58.0933 49.6768 57.4643C51.349 56.8148 52.7659 55.9437 54.1789 54.5289C55.5938 53.1153 56.4626 51.6964 57.1144 50.0242C57.7395 48.4064 58.1688 46.5577 58.296 43.8512C58.4178 41.1385 58.4496 40.2738 58.4496 33.3665C58.4496 26.4592 58.4178 25.5924 58.296 22.8795C58.1688 20.1719 57.7395 18.324 57.1144 16.707C56.4626 15.034 55.5938 13.6151 54.1789 12.2013C52.7644 10.7867 51.3495 9.91768 49.6753 9.26889C48.054 8.63968 46.2047 8.21089 43.4972 8.08703C40.7842 7.96368 39.9205 7.93341 33.0112 7.93341H33.0191ZM30.7375 12.5167C31.4148 12.5156 32.1704 12.5167 33.0191 12.5167C39.8099 12.5167 40.6146 12.5411 43.2962 12.6629C45.7759 12.7763 47.1218 13.1906 48.0184 13.5388C49.2053 13.9997 50.0515 14.5508 50.9411 15.4412C51.8312 16.3313 52.3821 17.179 52.8442 18.366C53.1924 19.2612 53.6072 20.6071 53.7201 23.0868C53.842 25.7679 53.8684 26.5731 53.8684 33.3606C53.8684 40.1482 53.842 40.9536 53.7201 43.6345C53.6067 46.1142 53.1924 47.4601 52.8442 48.3556C52.3834 49.5425 51.8312 50.3877 50.9411 51.2773C50.0509 52.1674 49.2058 52.7183 48.0184 53.1794C47.1229 53.5291 45.7759 53.9424 43.2962 54.0558C40.6151 54.1777 39.8099 54.2041 33.0191 54.2041C26.228 54.2041 25.4231 54.1777 22.7422 54.0558C20.2625 53.9414 18.9166 53.5271 18.0193 53.1789C16.8326 52.7178 15.9847 52.1669 15.0945 51.2768C14.2044 50.3866 13.6535 49.541 13.1914 48.3535C12.8432 47.4581 12.4284 46.1121 12.3155 43.6325C12.1937 40.9513 12.1693 40.1461 12.1693 33.3543C12.1693 26.5624 12.1937 25.7616 12.3155 23.0804C12.4289 20.6007 12.8432 19.2548 13.1914 18.3583C13.6525 17.1714 14.2044 16.3237 15.0948 15.4336C15.9852 14.5434 16.8326 13.9923 18.0196 13.5304C18.9161 13.1807 20.2625 12.7674 22.7422 12.6535C25.0884 12.5474 25.9976 12.5156 30.7375 12.5103V12.5167ZM46.5951 16.7395C44.9102 16.7395 43.5432 18.1053 43.5432 19.7905C43.5432 21.4754 44.9102 22.8424 46.5951 22.8424C48.2801 22.8424 49.6471 21.4754 49.6471 19.7905C49.6471 18.1055 48.2801 16.7385 46.5951 16.7385V16.7395ZM33.0191 20.3055C25.8063 20.3055 19.9583 26.1535 19.9583 33.3665C19.9583 40.5795 25.8063 46.4247 33.0191 46.4247C40.2321 46.4247 46.0781 40.5795 46.0781 33.3665C46.0781 26.1537 40.2316 20.3055 33.0186 20.3055H33.0191ZM33.0191 24.8887C37.701 24.8887 41.4969 28.6841 41.4969 33.3665C41.4969 38.0484 37.701 41.8443 33.0191 41.8443C28.3372 41.8443 24.5416 38.0484 24.5416 33.3665C24.5416 28.6841 28.3369 24.8887 33.0191 24.8887Z" fill="white"/>
</g>
<defs>
<radialGradient id="paint0_radial_351_316" cx="0" cy="0" r="1" gradientUnits="userSpaceOnUse" gradientTransform="translate(17.7572 70.935) rotate(-90) scale(64.5269 60.0151)">
<stop stop-color="#FFDD55"/>
<stop offset="0.1" stop-color="#FFDD55"/>
<stop offset="0.5" stop-color="#FF543E"/>
<stop offset="1" stop-color="#C837AB"/>
</radialGradient>
<radialGradient id="paint1_radial_351_316" cx="0" cy="0" r="1" gradientUnits="userSpaceOnUse" gradientTransform="translate(-10.443 5.50244) rotate(78.681) scale(28.8439 118.895)">
<stop stop-color="#3771C8"/>
<stop offset="0.128" stop-color="#3771C8"/>
<stop offset="1" stop-color="#6600FF" stop-opacity="0"/>
</radialGradient>
<clipPath id="clip0_351_316">
<rect width="64.9533" height="65.2635" fill="white" transform="translate(0.461914 0.81234)"/>
</clipPath>
</defs>
</svg>
