<svg width="79" height="81" viewBox="0 0 79 81" fill="none" xmlns="http://www.w3.org/2000/svg">
<g clip-path="url(#clip0_351_312)">
<path d="M1.73146 39.8918C1.72962 46.5537 3.46965 53.0586 6.77828 58.792L1.41504 78.3816L21.4549 73.1251C26.9976 76.1436 33.2079 77.7253 39.5187 77.7257H39.5353C60.3686 77.7257 77.3274 60.7666 77.3364 39.9216C77.3403 29.8208 73.4118 20.3226 66.2741 13.1766C59.1376 6.03132 49.6464 2.09417 39.5338 2.08956C18.698 2.08956 1.74037 19.0478 1.73177 39.8918" fill="url(#paint0_linear_351_312)"/>
<path d="M0.382424 39.8794C0.380273 46.7811 2.18266 53.5185 5.60927 59.4573L0.0537109 79.7491L20.8121 74.3042C26.5317 77.4239 32.9714 79.0687 39.5241 79.0711H39.541C61.1218 79.0711 78.6898 61.5019 78.699 39.9108C78.7027 29.447 74.6328 19.6073 67.2402 12.2054C59.8466 4.8044 50.0159 0.725578 39.541 0.721275C17.9566 0.721275 0.391026 18.288 0.382424 39.8794ZM12.7448 58.4345L11.9697 57.2037C8.71145 52.021 6.9917 46.0318 6.99416 39.8819C7.00092 21.9356 21.6007 7.33492 39.5533 7.33492C48.2473 7.33861 56.4178 10.729 62.5632 16.8804C68.7083 23.0325 72.0898 31.2104 72.0876 39.9083C72.0796 57.8546 57.4795 72.4572 39.541 72.4572H39.5281C33.6872 72.4541 27.9587 70.8849 22.9628 67.9195L21.774 67.2142L9.45551 70.4451L12.7448 58.4345Z" fill="url(#paint1_linear_351_312)"/>
<path d="M29.7538 23.5089C29.0208 21.8791 28.2494 21.8462 27.5523 21.8176C26.9815 21.7931 26.329 21.7949 25.6771 21.7949C25.0246 21.7949 23.9644 22.0405 23.0683 23.0193C22.1713 23.999 19.6436 26.3667 19.6436 31.1822C19.6436 35.9976 23.1497 40.6518 23.6385 41.3055C24.1279 41.9579 30.4072 52.1562 40.3522 56.0795C48.6173 59.3399 50.2993 58.6915 52.093 58.528C53.8871 58.3651 57.8821 56.1609 58.6971 53.8754C59.5127 51.5901 59.5127 49.6312 59.2682 49.2219C59.0237 48.814 58.3712 48.5691 57.3927 48.0798C56.4142 47.5906 51.6037 45.2223 50.7069 44.8956C49.8099 44.5693 49.1577 44.4064 48.5052 45.3864C47.8527 46.365 45.979 48.5691 45.4079 49.2219C44.8374 49.8761 44.2663 49.9576 43.2881 49.468C42.3091 48.9769 39.158 47.9446 35.4196 44.6104C32.511 42.016 30.5473 38.8121 29.9765 37.8321C29.4057 36.8535 29.9154 36.3231 30.406 35.8354C30.8456 35.3968 31.3847 34.6924 31.8744 34.1211C32.3623 33.5495 32.5251 33.1417 32.8514 32.4889C33.1779 31.8355 33.0145 31.2639 32.7703 30.7743C32.5251 30.2848 30.6238 25.4441 29.7538 23.5089Z" fill="white"/>
</g>
<defs>
<linearGradient id="paint0_linear_351_312" x1="3797.48" y1="7631.29" x2="3797.48" y2="2.08956" gradientUnits="userSpaceOnUse">
<stop stop-color="#1FAF38"/>
<stop offset="1" stop-color="#60D669"/>
</linearGradient>
<linearGradient id="paint1_linear_351_312" x1="3932.32" y1="7903.5" x2="3932.32" y2="0.721275" gradientUnits="userSpaceOnUse">
<stop stop-color="#F9F9F9"/>
<stop offset="1" stop-color="white"/>
</linearGradient>
<clipPath id="clip0_351_312">
<rect width="78.4638" height="79.29" fill="white" transform="translate(0.0537109 0.721275)"/>
</clipPath>
</defs>
</svg>
